HIERARCHY
ROOT Hips
{
	OFFSET 0.00000 0.00000 0.00000
	CHANNELS 6 Xposition Yposition Zposition Zrotation Yrotation Xrotation 
	JOINT LHipJoint
	{
		OFFSET 0 0 0
		CHANNELS 3 Zrotation Yrotation Xrotation
		JOINT LeftHip
		{
			OFFSET 1.73240 -1.89999 0.57994
			CHANNELS 3 Zrotation Yrotation Xrotation
			JOINT LeftKnee
			{
				OFFSET 2.43106 -6.67930 0.00000
				CHANNELS 3 Zrotation Yrotation Xrotation
				JOINT LeftAnkle
				{
					OFFSET 2.78854 -7.66147 0.00000
					CHANNELS 3 Zrotation Yrotation Xrotation
					JOINT LeftToe
					{
						OFFSET 0.17314 -0.47571 2.01064
						CHANNELS 3 Zrotation Yrotation Xrotation
						End Site
						{
							OFFSET 0.00000 -0.00000 1.04147
						}
					}
				}
			}
		}
	}
	JOINT RHipJoint
	{
		OFFSET 0 0 0
		CHANNELS 3 Zrotation Yrotation Xrotation
		JOINT RightHip
		{
			OFFSET -1.57078 -1.89998 0.57994
			CHANNELS 3 Zrotation Yrotation Xrotation
			JOINT RightKnee
			{
				OFFSET -2.50166 -6.87326 0.00000
				CHANNELS 3 Zrotation Yrotation Xrotation
				JOINT RightAnkle
				{
					OFFSET -2.77304 -7.61886 0.00000
					CHANNELS 3 Zrotation Yrotation Xrotation
					JOINT RightToe
					{
						OFFSET -0.23513 -0.64602 2.11039
						CHANNELS 3 Zrotation Yrotation Xrotation
						End Site
						{
							OFFSET -0.00000 -0.00000 1.10597
						}
					}
				}
			}
		}
	}
	JOINT lowerback
	{
		OFFSET 0 0 0
		CHANNELS 3 Zrotation Yrotation Xrotation
		JOINT Chest
		{
			OFFSET -0.00908 2.00015 -0.35323
			CHANNELS 3 Zrotation Yrotation Xrotation
			JOINT Chest2
			{
				OFFSET 0.05647 2.02258 0.04270
				CHANNELS 3 Zrotation Yrotation Xrotation
				JOINT lowerneck
				{
					OFFSET 0 0 0
					CHANNELS 3 Zrotation Yrotation Xrotation
					JOINT Neck
					{
						OFFSET -0.02074 1.73711 0.13117
						CHANNELS 3 Zrotation Yrotation Xrotation
						JOINT Head
						{
							OFFSET -0.02359 1.73615 -0.24320
							CHANNELS 3 Zrotation Yrotation Xrotation
							End Site
							{
								OFFSET -0.00579 1.75982 -0.09688
							}
						}
					}
				}
				JOINT LeftCollar
				{
					OFFSET 0 0 0
					CHANNELS 3 Zrotation Yrotation Xrotation
					JOINT LeftShoulder
					{
						OFFSET 3.20537 1.11432 -0.27680
CHANNELS 3 Zrotation Xrotation Yrotation
						JOINT LeftElbow
						{
OFFSET 0 -5.059230 -0.000000
CHANNELS 3 Zrotation Xrotation Yrotation
							JOINT LeftWrist
							{
OFFSET 0 -3.519960 0.000000
CHANNELS 3 Zrotation Xrotation Yrotation
								JOINT lhand
								{
									OFFSET 0 0 0
CHANNELS 3 Zrotation Xrotation Yrotation
									JOINT LFingers
									{
OFFSET 0 -0.652380 0.000000
CHANNELS 3 Zrotation Xrotation Yrotation
										End Site
										{
OFFSET 0 -0.525960 0.000000
										}
									}
								}
								JOINT LThumb
								{
OFFSET 0 0.000000 0.000000
CHANNELS 3 Zrotation Xrotation Yrotation
									End Site
									{
OFFSET 0 -0.533990 0.533990
									}
								}
							}
						}
					}
				}
				JOINT RightCollar
				{
					OFFSET 0 0 0
					CHANNELS 3 Zrotation Yrotation Xrotation
					JOINT RightShoulder
					{
						OFFSET -2.96983 1.42602 -0.37449
CHANNELS 3 Zrotation Xrotation Yrotation
						JOINT RightElbow
						{
OFFSET 0 -5.408670 0.000000
CHANNELS 3 Zrotation Xrotation Yrotation
							JOINT RightWrist
							{
OFFSET 0 -3.129640 0.000000
CHANNELS 3 Zrotation Xrotation Yrotation
								JOINT rhand
								{
									OFFSET 0 0 0
CHANNELS 3 Zrotation Xrotation Yrotation
									JOINT RFingers
									{
OFFSET 0 -0.832710 0.000000
CHANNELS 3 Zrotation Xrotation Yrotation
										End Site
										{
OFFSET 0 -0.671350 0.000000
										}
									}
								}
								JOINT RThumb
								{
OFFSET 0 0.000000 0.000000
CHANNELS 3 Zrotation Xrotation Yrotation
									End Site
									{
OFFSET 0 -0.681600 0.681600
									}
								}
							}
						}
					}
				}
			}
		}
	}
}
MOTION
Frames: 10
Frame Time: 0.008333333333333333
0.550449 17.907211 4.955776 3.701820 -1.487558 -7.542987 0.000000 0.000000 0.000000 -28.598863 -8.312082 -4.758031 2.391182 9.637208 27.809817 0.297157 1.592824 -11.002041 0.020633 -0.925927 -2.544965 0.000000 0.000000 0.000000 16.854738 4.023122 -18.264929 -14.644510 -19.297905 74.163492 0.720635 -14.870234 -4.580228 -0.763104 -5.576834 15.561804 -3.851842 -0.374513 18.811434 1.444320 -1.156344 2.489288 4.048575 -0.425774 -7.736405 -4.478757 -3.202778 -5.372458 -3.035840 -3.072679 28.969990 -0.613946 -2.235648 10.130580 0.000000 0.000000 0.000000 -1.613280 19.559136 0.607313 19.564859 -30.113329 5.311872 13.936133 6.229996 -49.382971 0.000000 0.000000 0.000000 -7.125000 0.000000 0.000000 -52.702021 75.000788 39.595364 0.000000 0.000000 0.000000 1.354619 18.348108 -11.471765 -109.755724 -58.466276 -77.020185 -15.508091 -50.158975 6.316010 0.000000 0.000000 0.000000 7.125000 0.000000 0.000000 9.445572 36.391442 2.022233
0.556347 17.901634 5.070527 4.176659 -1.264274 -7.475162 0.000000 0.000000 0.000000 -29.245188 -8.161046 -4.300693 2.355346 9.570024 27.595252 0.322672 1.347872 -11.305523 0.022300 -0.962981 -2.646895 0.000000 0.000000 0.000000 16.218413 4.030366 -19.168387 -14.593930 -19.284314 74.010277 0.657105 -14.185701 -5.410283 -0.714511 -5.401502 15.057411 -4.290525 -0.423940 18.876503 1.324761 -1.324432 2.398064 4.215124 -0.490522 -7.848015 -4.048472 -3.095335 -5.955574 -3.472921 -2.826637 29.404570 -0.837038 -2.134744 10.385341 0.000000 0.000000 0.000000 -1.545839 19.497209 0.262739 19.909177 -30.532588 5.485217 14.278400 6.186788 -49.482914 0.000000 0.000000 0.000000 -7.125000 0.000000 0.000000 -52.766064 75.183364 39.825892 0.000000 0.000000 0.000000 1.200058 18.127324 -11.358296 -111.363973 -58.202027 -78.389956 -15.304872 -48.448925 5.991629 0.000000 0.000000 0.000000 7.125000 0.000000 0.000000 9.565516 36.048727 2.129099
0.551999 17.898588 5.194740 3.897557 -1.346604 -7.657205 0.000000 0.000000 0.000000 -28.997812 -7.796183 -3.669966 2.337229 9.535746 27.486093 0.351682 1.169936 -11.684037 0.020592 -0.924942 -2.542350 0.000000 0.000000 0.000000 16.685519 4.309656 -19.573676 -14.457830 -19.246737 73.597612 0.613343 -13.779481 -6.329112 -0.641449 -5.118532 14.248007 -4.145882 -0.460951 19.053788 1.474415 -1.337272 2.397482 4.304351 -0.495967 -7.943594 -4.002511 -3.033394 -5.990078 -3.635484 -2.698538 29.490144 -0.891924 -2.091274 10.420729 0.000000 0.000000 0.000000 -1.559157 19.720586 -0.396008 20.552721 -31.297720 5.818089 14.824851 6.012559 -49.754015 0.000000 0.000000 0.000000 -7.125000 0.000000 0.000000 -53.282472 75.530651 40.598523 0.000000 0.000000 0.000000 0.862646 18.018697 -11.005205 -113.040263 -57.887818 -79.811075 -15.430953 -46.684574 5.462280 0.000000 0.000000 0.000000 7.125000 0.000000 0.000000 9.385450 35.514122 2.210231
0.552190 17.893875 5.320044 3.957405 -1.263213 -7.754917 0.000000 0.000000 0.000000 -29.163110 -7.543685 -3.076599 2.319924 9.502857 27.381481 0.379062 1.009214 -12.037766 0.020984 -0.932719 -2.563776 0.000000 0.000000 0.000000 16.664398 4.427325 -20.107632 -14.318915 -19.207729 73.175924 0.558068 -13.270123 -7.172237 -0.594591 -4.936463 13.727378 -4.256685 -0.516061 19.088275 1.508285 -1.430844 2.394582 4.428991 -0.536998 -7.951356 -4.062566 -2.984028 -5.791542 -3.674093 -2.623995 29.371262 -0.881398 -2.064918 10.339137 0.000000 0.000000 0.000000 -1.546055 19.946322 -1.101339 21.255278 -32.120206 6.187400 15.414584 5.878000 -49.933992 0.000000 0.000000 0.000000 -7.125000 0.000000 0.000000 -53.459946 75.850237 41.056267 0.000000 0.000000 0.000000 0.527379 17.843095 -10.617836 -114.577764 -57.585780 -81.112011 -15.731326 -44.799866 4.932498 0.000000 0.000000 0.000000 7.125000 0.000000 0.000000 9.065327 34.985766 2.249921
0.560845 17.886182 5.446142 4.648092 -0.877930 -7.689207 0.000000 0.000000 0.000000 -30.093941 -7.496567 -2.562142 2.302102 9.468817 27.273333 0.403423 0.869589 -12.343299 0.025151 -1.022981 -2.811998 0.000000 0.000000 0.000000 15.732797 4.253275 -20.903070 -14.184290 -19.168881 72.766473 0.481973 -12.563730 -7.882733 -0.592988 -4.930052 13.709171 -4.844480 -0.601964 18.878325 1.325453 -1.672142 2.378491 4.619388 -0.642197 -7.817629 -4.255527 -2.950436 -5.270097 -3.539148 -2.624508 28.955337 -0.781712 -2.060495 10.089633 0.000000 0.000000 0.000000 -1.481500 20.146272 -1.849979 22.022958 -33.000264 6.599543 16.053665 5.821714 -49.947646 0.000000 0.000000 0.000000 -7.125000 0.000000 0.000000 -53.037931 76.107562 40.944401 0.000000 0.000000 0.000000 0.214602 17.546665 -10.199474 -115.881953 -57.308774 -82.211700 -16.281619 -42.724599 4.423297 0.000000 0.000000 0.000000 7.125000 0.000000 0.000000 8.548048 34.487527 2.224727
0.564977 17.877543 5.561091 4.792394 -0.835099 -7.597099 0.000000 0.000000 0.000000 -30.318994 -7.329653 -2.253933 2.298269 9.461490 27.250009 0.428940 0.757625 -12.666450 0.034787 -1.194807 -3.285032 0.000000 0.000000 0.000000 15.586120 4.478891 -21.651810 -13.998603 -19.112993 72.199733 0.435275 -12.152301 -8.359845 -0.626829 -5.064418 14.092735 -4.976394 -0.621607 18.695195 1.299384 -1.717866 2.414042 4.670218 -0.666674 -7.671123 -3.805657 -2.825342 -5.978204 -3.879175 -2.376281 29.350418 -0.975833 -1.947478 10.361062 0.000000 0.000000 0.000000 -1.219267 19.750192 -2.397523 22.123721 -33.116593 6.653301 16.523572 5.945436 -49.831620 0.000000 0.000000 0.000000 -7.125000 0.000000 0.000000 -52.264998 76.234995 40.408257 0.000000 0.000000 0.000000 -0.028391 16.802609 -9.985889 -116.292153 -57.219507 -82.557124 -16.262756 -40.077758 3.884069 0.000000 0.000000 0.000000 7.125000 0.000000 0.000000 8.497170 33.932547 2.328793
0.567534 17.868162 5.673449 4.841184 -0.856863 -7.500042 0.000000 0.000000 0.000000 -30.408729 -7.116216 -1.992088 2.294261 9.453806 27.225532 0.454010 0.630385 -12.971706 0.045454 -1.373163 -3.776225 0.000000 0.000000 0.000000 15.583247 4.791034 -22.385713 -13.793317 -19.049685 71.571895 0.395901 -11.826969 -8.805401 -0.670555 -5.235214 14.580882 -5.057345 -0.629290 18.662414 1.316568 -1.743122 2.350236 4.742329 -0.672685 -7.717394 -3.391638 -2.679269 -6.541668 -4.203794 -2.104537 29.742614 -1.153060 -1.824948 10.603930 0.000000 0.000000 0.000000 -0.989026 19.492486 -2.895426 22.217479 -33.220519 6.705267 16.895086 6.049172 -49.757505 0.000000 0.000000 0.000000 -7.125000 0.000000 0.000000 -51.717936 76.344978 40.046806 0.000000 0.000000 0.000000 -0.333478 16.258748 -9.696709 -116.793521 -57.102364 -82.977729 -16.048737 -37.316849 3.336777 0.000000 0.000000 0.000000 7.125000 0.000000 0.000000 8.605451 33.361932 2.480189
0.568431 17.857264 5.785379 4.958628 -0.849042 -7.405356 0.000000 0.000000 0.000000 -30.553226 -6.845172 -1.733609 2.281055 9.428483 27.145014 0.477088 0.442552 -13.215183 0.055647 -1.519327 -4.179136 0.000000 0.000000 0.000000 15.500485 5.100286 -23.106530 -13.564135 -18.975898 70.868386 0.359039 -11.562656 -9.306524 -0.720302 -5.421893 15.116110 -5.277168 -0.644227 19.039939 1.359071 -1.831910 1.972134 4.961702 -0.676467 -8.319101 -3.479336 -2.530541 -5.929447 -4.189177 -1.920743 29.622093 -1.099531 -1.742955 10.441611 0.000000 0.000000 0.000000 -0.972615 19.998546 -3.377445 22.706229 -33.764338 6.975093 17.092407 5.984167 -49.883090 0.000000 0.000000 0.000000 -7.125000 0.000000 0.000000 -52.030649 76.486205 40.445423 0.000000 0.000000 0.000000 -0.858321 16.561910 -9.065449 -118.109955 -56.789266 -84.081072 -15.634543 -34.587564 2.785266 0.000000 0.000000 0.000000 7.125000 0.000000 0.000000 8.875597 32.782214 2.685587
0.566679 17.848521 5.900004 5.082000 -0.697246 -7.315700 0.000000 0.000000 0.000000 -30.705986 -6.658735 -1.466867 2.285183 9.436438 27.170344 0.504972 0.174288 -13.489378 0.066963 -1.665311 -4.581689 0.000000 0.000000 0.000000 15.397829 5.280561 -23.772649 -13.294895 -18.884596 70.037653 0.318136 -11.317115 -9.915247 -0.730485 -5.460600 15.227046 -5.514864 -0.731017 18.896619 1.374045 -1.983075 2.065702 5.142006 -0.752686 -8.110171 -3.360142 -2.398025 -6.120769 -4.266398 -1.725856 29.463086 -1.126387 -1.648074 10.417385 0.000000 0.000000 0.000000 -0.889470 19.740582 -3.805216 23.281563 -34.391146 7.298494 17.103583 5.738228 -50.020711 0.000000 0.000000 0.000000 -7.125000 0.000000 0.000000 -52.534402 76.558454 40.943915 0.000000 0.000000 0.000000 -1.263932 15.791586 -8.530427 -118.700988 -56.645966 -84.575864 -15.201577 -31.659920 2.081202 0.000000 0.000000 0.000000 7.125000 0.000000 0.000000 9.142959 32.049673 2.933334
0.563857 17.840763 6.015970 5.187838 -0.506535 -7.245512 0.000000 0.000000 0.000000 -30.839453 -6.489699 -1.180627 2.295497 9.456257 27.233380 0.535099 -0.117145 -13.781691 0.078957 -1.810957 -4.983456 0.000000 0.000000 0.000000 15.317626 5.419553 -24.382462 -13.002571 -18.782427 69.132841 0.275406 -11.087803 -10.574649 -0.715478 -5.404278 15.065649 -5.727413 -0.836508 18.613553 1.377566 -2.144212 2.307644 5.288198 -0.847234 -7.661657 -3.183178 -2.287395 -6.594328 -4.344107 -1.555400 29.328428 -1.171436 -1.560448 10.456252 0.000000 0.000000 0.000000 -0.753861 19.257600 -4.261270 23.897563 -35.054255 7.648207 17.059531 5.414036 -50.192216 0.000000 0.000000 0.000000 -7.125000 0.000000 0.000000 -53.215457 76.623823 41.590112 0.000000 0.000000 0.000000 -1.623980 14.700456 -7.999118 -119.061119 -56.554116 -84.876404 -14.852286 -28.659122 1.367191 0.000000 0.000000 0.000000 7.125000 0.000000 0.000000 9.342762 31.310514 3.163567
